<?xml version="1.0" encoding="utf-8"?>
<!-- Generator: Adobe Illustrator 25.2.1, SVG Export Plug-In . SVG Version: 6.00 Build 0)  -->
<svg version="1.1" id="Layer_1" xmlns="http://www.w3.org/2000/svg" xmlns:xlink="http://www.w3.org/1999/xlink" x="0px" y="0px"
	 viewBox="0 0 182.6 270.9" style="enable-background:new 0 0 182.6 270.9;" xml:space="preserve">
<style type="text/css">
	.st0{fill-rule:evenodd;clip-rule:evenodd;fill:#000001;}
	.st1{fill-rule:evenodd;clip-rule:evenodd;fill:#9ADAF2;}
	.st2{fill-rule:evenodd;clip-rule:evenodd;fill:#007FA5;}
	.st3{fill-rule:evenodd;clip-rule:evenodd;fill:#22A7D4;}
	.st4{fill-rule:evenodd;clip-rule:evenodd;fill:#00425D;}
	.st5{fill-rule:evenodd;clip-rule:evenodd;fill:#006B8E;}
	.st6{fill-rule:evenodd;clip-rule:evenodd;fill:#C0E7FA;stroke:#231F20;stroke-width:0.5;stroke-miterlimit:2.6131;}
	.st7{fill-rule:evenodd;clip-rule:evenodd;fill:#FFCC02;}
	.st8{fill-rule:evenodd;clip-rule:evenodd;fill:#8BD4E6;}
	.st9{fill-rule:evenodd;clip-rule:evenodd;fill:#ED3180;}
	.st10{fill-rule:evenodd;clip-rule:evenodd;fill:#50B748;}
	.st11{fill-rule:evenodd;clip-rule:evenodd;fill:#C83637;}
	.st12{fill-rule:evenodd;clip-rule:evenodd;fill:#EB6363;}
	.st13{fill-rule:evenodd;clip-rule:evenodd;fill:#FFFFFF;}
	.st14{fill-rule:evenodd;clip-rule:evenodd;fill:#93C1D7;}
	.st15{fill-rule:evenodd;clip-rule:evenodd;fill:#4695B2;}
	.st16{fill-rule:evenodd;clip-rule:evenodd;fill:#008EA1;}
	.st17{fill-rule:evenodd;clip-rule:evenodd;fill:#FACBCB;}
	.st18{fill-rule:evenodd;clip-rule:evenodd;fill:#5E5F5F;}
</style>
<path class="st0" d="M102.4,263.9c35.2,0,63.7,1.6,63.7,3.5s-28.5,3.5-63.7,3.5s-63.7-1.6-63.7-3.5
	C38.7,265.4,67.2,263.9,102.4,263.9z"/>
<path class="st0" d="M57.8,66.3h87c4.3,0,8.2,1.8,11,4.6c2.8,2.8,4.6,6.7,4.6,11v123.8c0,4.3-1.8,8.2-4.6,11l0,0
	c-2.8,2.8-6.7,4.6-11,4.6h-87c-4.3,0-8.2-1.8-11-4.6s-4.6-6.7-4.6-11V81.9c0-4.3,1.8-8.2,4.6-11l0,0C49.6,68.1,53.5,66.3,57.8,66.3
	L57.8,66.3z M144.8,72.4h-87c-2.6,0-5,1.1-6.7,2.8l0,0c-1.7,1.7-2.8,4.1-2.8,6.7v123.8c0,2.6,1.1,5,2.8,6.7s4.1,2.8,6.7,2.8h87
	c2.6,0,5-1.1,6.7-2.8s2.8-4.1,2.8-6.7V81.9c0-2.6-1.1-5-2.8-6.7C149.8,73.5,147.4,72.4,144.8,72.4z"/>
<path class="st0" d="M160.4,198.8v22.3c0,4.3-1.8,8.2-4.6,11s-6.7,4.6-11,4.6h-87c-4.3,0-8.2-1.8-11-4.6s-4.6-6.7-4.6-11v-22.3h6.1
	v22.3c0,2.6,1.1,5,2.8,6.7s4.1,2.8,6.7,2.8h87c2.6,0,5-1.1,6.7-2.8s2.8-4.1,2.8-6.7v-22.3H160.4z"/>
<path class="st0" d="M157.3,160.4h6.2c0.7,0,1.4-0.3,1.9-0.8s0.8-1.1,0.8-1.9v-10.1c0-0.7-0.3-1.4-0.8-1.9l0,0
	c-0.5-0.5-1.1-0.8-1.9-0.8h-6.2v-6.1h6.2c2.4,0,4.6,1,6.2,2.6l0,0c1.6,1.6,2.6,3.8,2.6,6.2v10.1c0,2.4-1,4.6-2.6,6.2
	c-1.6,1.6-3.8,2.6-6.2,2.6h-6.2V160.4z"/>
<path class="st0" d="M156.1,164.4c-0.5-1.6,0.3-3.3,1.9-3.9c1.6-0.5,3.3,0.3,3.9,1.9l11.4,33.9c0.3,0.8,0.2,1.7-0.2,2.4
	c-0.8,1.6-1.1,2.9-1,3.9l0.1,0.3l4.1-4.8l-10-45c-0.4-1.6,0.7-3.3,2.3-3.6c1.6-0.4,3.3,0.7,3.6,2.3l10.3,46.3c0.3,0.9,0.1,2-0.6,2.8
	l-7.5,8.9c-1.1,1.3-3,1.4-4.3,0.3c-2.1-1.8-3.5-3.9-4-6.4c-0.4-2.1-0.1-4.2,1-6.6L156.1,164.4z"/>
<path class="st0" d="M44.4,166.5h-6.2c-2.4,0-4.6-1-6.2-2.6c-1.6-1.6-2.6-3.8-2.6-6.2v-10.1c0-2.4,1-4.6,2.6-6.2l0,0
	c1.6-1.6,3.8-2.6,6.2-2.6h6.2v6.1h-6.2c-0.7,0-1.4,0.3-1.9,0.8l0,0c-0.5,0.5-0.8,1.1-0.8,1.9v10.1c0,0.7,0.3,1.4,0.8,1.9
	s1.1,0.8,1.9,0.8h6.2V166.5z"/>
<path class="st1" d="M48.3,81.9v116.9v6.9c0,2.6,1.1,5,2.8,6.7s4.1,2.8,6.7,2.8h87c2.6,0,5-1.1,6.7-2.8s2.8-4.1,2.8-6.7v-6.9V81.9
	c0-2.6-1.1-5-2.8-6.7s-4.1-2.8-6.7-2.8h-87c-2.6,0-5,1.1-6.7,2.8l0,0C49.4,76.9,48.3,79.3,48.3,81.9z"/>
<path class="st2" d="M61.2,215.2h83.6c2.6,0,5-1.1,6.7-2.8s2.8-4.1,2.8-6.7v-6.9V81.9c0-2.6-1.1-5-2.8-6.7s-4.1-2.8-6.7-2.8H61.2
	c-2.6,0-5,1.1-6.7,2.8l0,0c-1.7,1.7-2.8,4.1-2.8,6.7v116.9v6.9c0,2.6,1.1,5,2.8,6.7C56.2,214.2,58.6,215.2,61.2,215.2z"/>
<path class="st3" d="M61.2,215.2H140c2.6,0,5-1.1,6.7-2.8s2.8-4.1,2.8-6.7v-6.9V81.9c0-2.6-1.1-5-2.8-6.7s-4.1-2.8-6.7-2.8H61.2
	c-2.6,0-5,1.1-6.7,2.8l0,0c-1.7,1.7-2.8,4.1-2.8,6.7v116.9v6.9c0,2.6,1.1,5,2.8,6.7C56.2,214.2,58.6,215.2,61.2,215.2z"/>
<path class="st4" d="M144.8,221.4h-87c-3.6,0-6.9-1.2-9.5-3.2v3c0,2.6,1.1,5,2.8,6.7s4.1,2.8,6.7,2.8h87c2.6,0,5-1.1,6.7-2.8
	s2.8-4.1,2.8-6.7v-3C151.6,220.1,148.3,221.4,144.8,221.4z"/>
<path class="st5" d="M144.8,221.4h-5.4H57.8c-3.6,0-6.9-1.2-9.5-3.2v2.7v0.3c0,2.6,1.1,5,2.8,6.7s4.1,2.8,6.7,2.8h81.6
	c2.6,0,5-1.1,6.7-2.8s2.8-4.1,2.8-6.7v-0.3C147.5,221.2,146.2,221.4,144.8,221.4z"/>
<rect x="59.4" y="83.3" class="st6" width="83.8" height="59.5"/>
<path class="st0" d="M59.2,79.6h84.5c1.7,0,3.1,1.4,3.1,3.1V142c0,1.7-1.4,3.1-3.1,3.1H59.2c-1.7,0-3.1-1.4-3.1-3.1V82.7
	C56.1,81,57.5,79.6,59.2,79.6L59.2,79.6z M140.6,85.8H62.2V139h78.4V85.8z"/>
<path class="st0" d="M69.1,166.3h6.7c2.8,0,5.1,2.3,5.1,5.1v0.3h0.3c2.8,0,5.1,2.3,5.1,5.1v6.7c0,2.8-2.3,5.1-5.1,5.1h-0.3v0.3
	c0,2.8-2.3,5.1-5.1,5.1h-6.7c-2.8,0-5.1-2.3-5.1-5.1v-0.3h-0.3c-2.8,0-5.1-2.3-5.1-5.1v-6.7c0-2.8,2.3-5.1,5.1-5.1H64v-0.3
	C64,168.6,66.3,166.3,69.1,166.3z"/>
<polygon class="st7" points="69.1,171.4 75.8,171.4 75.8,176.8 81.2,176.8 81.2,183.5 75.8,183.5 75.8,188.9 69.1,188.9 69.1,183.5 
	63.7,183.5 63.7,176.8 69.1,176.8 "/>
<path class="st0" d="M117.8,162.4l4.2,8.4c1.3,2.5,0.2,5.6-2.3,6.8c-0.7,0.4-1.5,0.5-2.3,0.5l0,0H109c-2.8,0-5.1-2.3-5.1-5.1
	c0-1,0.3-1.9,0.8-2.7l4-8c1.3-2.5,4.3-3.5,6.8-2.3C116.5,160.7,117.3,161.5,117.8,162.4z"/>
<polygon class="st8" points="113.2,164.7 117.5,173.1 109,173.1 "/>
<path class="st0" d="M113.2,182.2c2.5,0,4.8,1,6.5,2.7l0,0c1.7,1.7,2.7,4,2.7,6.5s-1,4.8-2.7,6.5l0,0c-1.7,1.7-4,2.7-6.5,2.7
	s-4.9-1-6.5-2.7c-0.1-0.1-0.3-0.3-0.4-0.4c-1.4-1.6-2.3-3.8-2.3-6.1c0-2.5,1-4.9,2.7-6.5C108.4,183.3,110.7,182.2,113.2,182.2
	L113.2,182.2z M113.9,190.8l-0.6,0.6c0.8-0.8,0.8-0.8,0,0l0,0L113.9,190.8L113.9,190.8L113.9,190.8z M113.2,191.4L113.2,191.4
	L113.2,191.4L113.2,191.4L113.2,191.4L113.2,191.4L113.2,191.4z M113.2,191.4L113.2,191.4L113.2,191.4L113.2,191.4L113.2,191.4
	L113.2,191.4L113.2,191.4z"/>
<path class="st9" d="M113.2,187.3c2.3,0,4.1,1.8,4.1,4.1s-1.8,4.1-4.1,4.1c-2.3,0-4.1-1.8-4.1-4.1
	C109.1,189.2,111,187.3,113.2,187.3z"/>
<path class="st0" d="M136.2,159.7c2.5,0,4.8,1,6.5,2.7l0,0c1.7,1.7,2.7,4,2.7,6.5s-1,4.9-2.7,6.5c-0.1,0.1-0.3,0.3-0.4,0.4
	c-1.6,1.4-3.8,2.3-6.1,2.3c-2.5,0-4.9-1-6.5-2.7s-2.7-4-2.7-6.5s1-4.8,2.7-6.5l0,0C131.3,160.7,133.6,159.7,136.2,159.7L136.2,159.7
	z M136.2,168.9L136.2,168.9L136.2,168.9L136.2,168.9L136.2,168.9z M136.2,168.9L136.2,168.9L136.2,168.9L136.2,168.9z"/>
<path class="st10" d="M136.2,164.8c2.3,0,4.1,1.8,4.1,4.1s-1.8,4.1-4.1,4.1s-4.1-1.8-4.1-4.1S133.9,164.8,136.2,164.8z"/>
<path class="st0" d="M58.9,158.6c-1.7,0-3.1-1.4-3.1-3.1s1.4-3.1,3.1-3.1h23.3c1.7,0,3.1,1.4,3.1,3.1s-1.4,3.1-3.1,3.1H58.9z"/>
<path class="st0" d="M93.6,158.6c-1.7,0-3.1-1.4-3.1-3.1s1.4-3.1,3.1-3.1h4.1c1.7,0,3.1,1.4,3.1,3.1s-1.4,3.1-3.1,3.1H93.6z"/>
<path class="st0" d="M59.8,207.8c-1.7,0-3.1-1.4-3.1-3.1c0-1.7,1.4-3.1,3.1-3.1H66c1.7,0,3.1,1.4,3.1,3.1c0,1.7-1.4,3.1-3.1,3.1
	H59.8z"/>
<path class="st0" d="M78.9,207.8c-1.7,0-3.1-1.4-3.1-3.1c0-1.7,1.4-3.1,3.1-3.1H85c1.7,0,3.1,1.4,3.1,3.1c0,1.7-1.4,3.1-3.1,3.1
	H78.9z"/>
<path class="st0" d="M124.6,99.3c0.7-1.5,2.5-2.2,4-1.6c1.5,0.7,2.2,2.5,1.6,4c-1,2.2-2.5,4-4.5,5.3c-1.9,1.2-4.2,2-6.6,2
	s-4.7-0.7-6.6-2c-2-1.3-3.5-3.1-4.5-5.3c-0.7-1.5,0-3.3,1.6-4c1.5-0.7,3.3,0,4,1.6c0.5,1.1,1.3,2,2.2,2.6c0.9,0.6,2.1,1,3.3,1
	c1.2,0,2.4-0.4,3.3-1C123.4,101.2,124.1,100.3,124.6,99.3L124.6,99.3z M116.4,126.3c0.5,1.6-0.4,3.3-2,3.8s-3.3-0.4-3.8-2
	c-0.6-2-1.9-3.7-3.6-4.9c-1.6-1.2-3.6-1.9-5.8-1.9c-2.2,0-4.2,0.7-5.8,1.9c-1.7,1.2-2.9,2.9-3.6,4.9c-0.5,1.6-2.2,2.5-3.8,2
	c-1.6-0.5-2.5-2.2-2-3.8c1.1-3.2,3.1-6,5.8-8c2.6-1.9,5.9-3,9.4-3s6.7,1.1,9.4,3C113.3,120.3,115.3,123.1,116.4,126.3L116.4,126.3z
	 M89.4,99.3c0.7-1.5,2.5-2.2,4-1.6c1.5,0.7,2.2,2.5,1.6,4c-1,2.2-2.5,4-4.5,5.3c-1.9,1.2-4.2,2-6.6,2s-4.7-0.7-6.6-2
	c-2-1.3-3.5-3.1-4.5-5.3c-0.7-1.5,0-3.3,1.6-4c1.5-0.7,3.3,0,4,1.6c0.5,1.1,1.3,2,2.2,2.6c0.9,0.6,2.1,1,3.3,1c1.2,0,2.4-0.4,3.3-1
	C88.2,101.2,88.9,100.3,89.4,99.3z"/>
<path class="st11" d="M99.3,160.7l3.7,5.1l1.3,1.7l-1.7,1.3l-2.1,1.5l-23.4,17.1c-0.9,0.7-2.2,0.5-3-0.5l-3.7-5.1
	c-0.7-0.9-0.5-2.2,0.5-3l23.4-17.1l2.1-1.5l1.7-1.3L99.3,160.7z"/>
<path class="st12" d="M99.3,160.7l2.6,3.7l-1.7,1.2l-27.2,19.9l-2.7-3.6c-0.7-0.9-0.5-2.2,0.5-3l23.4-17.1l2.1-1.5l1.7-1.3
	L99.3,160.7z"/>
<path class="st0" d="M100.2,160.1l5,6.8c0.4,0.5,0.2,1.1-0.2,1.4l-27.1,19.8c-0.8,0.5-1.6,0.7-2.3,0.6l-0.1-0.1
	c-0.8-0.2-1.5-0.6-2-1.3l-3.8-5.2c-0.4-0.7-0.6-1.5-0.5-2.2c0.1-0.7,0.5-1.4,1.2-2c9-6.7,18.2-13.3,27.2-19.9
	c0.5-0.4,1.1-0.2,1.4,0.2L100.2,160.1L100.2,160.1z M102.2,166.4l-4.4-6c-8.8,6.4-17.5,12.9-26.3,19.2c-0.3,0.2-0.4,0.4-0.4,0.7
	s0,0.6,0.2,0.8l3.7,5.1c0.2,0.3,0.4,0.4,0.7,0.5l0,0c0.3,0,0.6,0,0.8-0.2l26.3-19.2L102.2,166.4z"/>
<g>
	<path class="st0" d="M92.7,180.3c-0.7,2.6-4.7,3.6-7,1.9c-1.9,1.6-5.3,1.5-7.1-0.2c-2.5-2.5-2.3-6.1,1.8-9.2
		c4.8-3.6,11.5-6.9,15.6-3.2c2,1.7,3.8,4.2,3.9,6.2l0,0l0,0c0.1,0.2,0,0.5,0,0.7C99.5,179.5,96.6,181.5,92.7,180.3z"/>
	<path class="st3" d="M48,162.2L48,162.2c-0.5,0.5-0.9,0.8-1.4,1.1l29,8.7l6.9-1.3l-31.5-13.8C50.5,158.9,49.5,160.7,48,162.2z"/>
	<path class="st0" d="M83.7,165.7c2.3-1,4.4-1.4,6.4-1c2.5,0.5,4.6,1.8,6.5,3.9c1.1,1.3,1,3.2-0.2,4.3l-0.2,0.1l-8.6,7.5
		c-0.9,0.7-2.1,0.9-3.1,0.5l-52.9-16.9c-1.6-0.6-2.4-2.3-2-3.9c0.6-1.6,2.3-2.4,3.9-2l51.3,16.5l4.6-4l-0.3-0.1
		c-1-0.1-2.3,0.1-3.9,1.1c-0.9,0.5-1.9,0.5-2.8,0.1l-36.8-17.1c-1.5-0.8-2.1-2.6-1.5-4.1c0.8-1.5,2.6-2.1,4.1-1.5L83.7,165.7z"/>
</g>
<path class="st3" d="M38.2,145c-0.7,0-1.4,0.3-1.9,0.8l0,0c-0.5,0.5-0.8,1.1-0.8,1.9v10.1c0,0.7,0.3,1.4,0.8,1.9s1.1,0.8,1.9,0.8h4
	v-15.3c-0.5,0.1-1,0.1-1.5-0.1L38.2,145L38.2,145z"/>
<path class="st3" d="M160.4,145v15.4h3.1c0.7,0,1.4-0.3,1.9-0.8s0.8-1.1,0.8-1.9v-10.1c0-0.7-0.3-1.4-0.8-1.9l0,0
	c-0.5-0.5-1.1-0.8-1.9-0.8h-3.1V145z"/>
<path class="st3" d="M168.8,164.7c-1.5,1.1-3.3,1.8-5.3,1.8h-0.3l10.1,29.9c0.3,0.8,0.2,1.7-0.2,2.4c-0.8,1.6-1.1,2.9-1,3.9l0.1,0.3
	l4.1-4.8L168.8,164.7z"/>
<path class="st0" d="M70.4,256.2h-5.7c-1,0-1.9,0.4-2.6,1.1s-1.1,1.6-1.1,2.6s0.4,1.9,1.1,2.6l0,0c0.7,0.7,1.6,1.1,2.6,1.1h13.8
	c1,0,1.9-0.4,2.6-1.1s1.1-1.6,1.1-2.6v-0.5l4-26.2l6,0.9l-3.9,26c-0.1,2.6-1.1,5-2.9,6.7c-1.8,1.8-4.2,2.9-6.9,2.9H64.8
	c-2.7,0-5.1-1.1-6.9-2.9l0,0c-1.8-1.8-2.9-4.2-2.9-6.9c0-2.7,1.1-5.1,2.9-6.9c1.8-1.8,4.2-2.9,6.9-2.9h14.8
	C79.5,255.5,73.4,256.2,70.4,256.2z"/>
<rect x="64.3" y="240.3" transform="matrix(0.1494 -0.9888 0.9888 0.1494 -177.5773 280.291)" class="st0" width="19.7" height="6.1"/>
<path class="st3" d="M62.2,262.4L62.2,262.4L62.2,262.4z M82.2,259.4l3.4-22.7h-7.4l-2,13.4h3.3c0,5.4-6.1,6.1-9.1,6.1h-5.7
	c-1,0-1.9,0.4-2.6,1.1s-1.1,1.6-1.1,2.6s0.4,1.9,1.1,2.6c0.7,0.7,1.6,1.1,2.6,1.1h13.8c1,0,1.9-0.4,2.6-1.1s1.1-1.6,1.1-2.6
	L82.2,259.4z"/>
<path class="st0" d="M132.2,256.2h5.7c1,0,1.9,0.4,2.6,1.1c0.7,0.7,1.1,1.6,1.1,2.6s-0.4,1.9-1.1,2.6l0,0c-0.7,0.7-1.6,1.1-2.6,1.1
	H124c-1,0-1.9-0.4-2.6-1.1s-1.1-1.6-1.1-2.6v-0.5l-4-26.2l-6,0.9l3.9,26c0.1,2.6,1.1,5,2.9,6.7c1.8,1.8,4.2,2.9,6.9,2.9h13.8
	c2.7,0,5.1-1.1,6.9-2.9l0,0c1.8-1.8,2.9-4.2,2.9-6.9c0-2.7-1.1-5.1-2.9-6.9c-1.8-1.8-4.2-2.9-6.9-2.9H123
	C123.1,255.5,129.2,256.2,132.2,256.2z"/>
<rect x="125.4" y="233.5" transform="matrix(0.9888 -0.1493 0.1493 0.9888 -34.8934 21.9034)" class="st0" width="6.1" height="19.7"/>
<path class="st3" d="M140.4,262.4L140.4,262.4L140.4,262.4z M120.3,259.4l-3.4-22.7h7.4l2,13.4H123c0,5.4,6.1,6.1,9.1,6.1h5.7
	c1,0,1.9,0.4,2.6,1.1c0.7,0.7,1.1,1.6,1.1,2.6s-0.4,1.9-1.1,2.6c-0.7,0.7-1.6,1.1-2.6,1.1H124c-1,0-1.9-0.4-2.6-1.1
	s-1.1-1.6-1.1-2.6V259.4z"/>
<rect x="62.2" y="85.8" class="st13" width="4.1" height="53.2"/>
<rect x="134" y="85.8" class="st14" width="6.6" height="53.2"/>
<path class="st15" d="M54.2,227.8c-1.7-1.7-2.8-4.1-2.8-6.7v-0.3V220c-1.1-0.5-2.2-1.1-3.1-1.9v3c0,2.6,1.1,5,2.8,6.7
	s4.1,2.8,6.7,2.8h3.1C58.3,230.6,55.9,229.5,54.2,227.8z"/>
<polygon class="st16" points="104.5,153.4 111.5,163 164.7,124.1 170.8,112.3 157.6,114.5 "/>
<path class="st17" d="M166,113.6c0,0-3.9,0.4-4.4,0.5c-0.5,0.1-4.1,0.3-3.2,1.5c1,1.7,1.7,2,2.9,3.3c0.7,0.8,2.4,4.4,3.2,4.5
	c0.8,0,1.6-1.1,1.9-1.8c0.3-0.8,0.4-1.3,0.8-2.1c1.4-3.4,0.5-1.7-0.7-5.2C166.3,114.1,166.2,113.9,166,113.6L166,113.6z"/>
<path class="st0" d="M106,153.6l5.9,7.9l52.1-38l5-9.8l-10.9,1.9L106,153.6L106,153.6z M110.7,163.6l-7-9.6
	c-0.4-0.5-0.2-1.1,0.2-1.4l53.1-38.8c0.1-0.1,0.3-0.2,0.4-0.2l13.2-2.3c0.2-0.1,0.4,0,0.7,0.1c0.5,0.2,0.7,0.9,0.5,1.4l-6.1,11.8
	c-0.1,0.1-0.2,0.2-0.3,0.4l-53.2,38.8C111.7,164.1,111.1,164.1,110.7,163.6z"/>
<path class="st0" d="M161.8,118.9L161.8,118.9c0.2,0.3,0.4,0.5,0.7,0.6l0,0c0.3,0.1,0.6,0.3,0.8,0.3c0.6,0.1,0.9,0.5,0.8,1.2
	c0,0.3,0,0.6,0,0.8c0,0.3,0.2,0.6,0.4,0.8l0,0c0.1,0.1,0.2,0.2,0.3,0.3l0,0c0.1,0.1,0.2,0.2,0.3,0.3c0.4,0.3,0.7,0.9,0.3,1.4
	c-0.3,0.4-0.9,0.7-1.4,0.3c-0.3-0.1-0.5-0.3-0.7-0.5c-0.2-0.2-0.4-0.3-0.5-0.6l-0.1-0.1c-0.4-0.5-0.6-1-0.7-1.5
	c-0.1-0.2-0.1-0.5-0.1-0.8c-0.2-0.1-0.5-0.2-0.6-0.3l0,0c-0.4-0.3-0.9-0.7-1.2-1.1l0,0c-0.4-0.5-0.6-1-0.7-1.5
	c-0.1-0.2-0.1-0.5-0.1-0.8c-0.2-0.1-0.5-0.2-0.6-0.3c-0.4-0.3-0.9-0.7-1.2-1.1c-0.2-0.3-0.4-0.5-0.4-0.7c-0.2-0.3-0.2-0.5-0.3-0.8
	c-0.2-0.6,0.2-1.1,0.7-1.2c0.6-0.2,1.1,0.2,1.2,0.7c0,0.1,0.1,0.4,0.2,0.4c0,0.1,0.2,0.3,0.3,0.4c0.2,0.3,0.4,0.5,0.7,0.6
	c0.3,0.1,0.6,0.3,0.8,0.3c0.6,0.1,0.9,0.6,0.9,1.1c0,0.3,0,0.6,0,0.8C161.5,118.4,161.6,118.7,161.8,118.9z"/>
<path class="st0" d="M165.8,115.9c-0.2-0.3-0.5-0.8-0.5-1.2c-0.2-0.4-0.1-0.9-0.1-1.3c0.1-0.6,0.6-0.9,1.1-0.9
	c0.6,0.1,0.9,0.6,0.9,1.1c-0.1,0.2,0,0.4,0,0.6c0.1,0.2,0.2,0.4,0.3,0.6l0,0c0.1,0.1,0.3,0.3,0.4,0.4l0,0c0.1,0.1,0.4,0.2,0.5,0.2
	c0.6,0.1,0.9,0.6,0.8,1.2s-0.6,0.9-1.2,0.8c-0.4-0.1-0.9-0.3-1.2-0.5l0,0C166.5,116.7,166.1,116.3,165.8,115.9L165.8,115.9z"/>
<path class="st0" d="M159.7,116.3c0.5-0.4,1.1-0.2,1.4,0.2c0.4,0.5,0.2,1.1-0.2,1.4l-53.6,39.2c-0.5,0.4-1.1,0.2-1.4-0.2
	s-0.2-1.1,0.2-1.4L159.7,116.3z"/>
<path class="st0" d="M162.5,120c0.5-0.4,1.1-0.2,1.4,0.2c0.4,0.5,0.2,1.1-0.2,1.4L110,160.9c-0.5,0.4-1.1,0.2-1.4-0.2
	s-0.2-1.1,0.2-1.4L162.5,120z"/>
<path class="st0" d="M104.2,152.8l7.8,10.7c0.7,0.9,0.5,2.2-0.5,2.8L108,169c-0.9,0.7-2.2,0.5-2.8-0.5l-7.8-10.7
	c-0.7-0.9-0.5-2.2,0.5-2.8l3.5-2.6C102.2,151.8,103.5,152,104.2,152.8z"/>
<path class="st18" d="M108.8,159.3l3.1,4.3c0.7,0.9,0.5,2.2-0.5,2.8L108,169c-0.9,0.7-2.2,0.5-2.8-0.5l-3.2-4.2L108.8,159.3z"/>
<path class="st0" d="M105,152.3l7.8,10.7c0.4,0.7,0.7,1.5,0.6,2.3l-0.1,0.1c-0.1,0.7-0.5,1.4-1.2,1.9l-3.5,2.6
	c-0.7,0.4-1.5,0.7-2.3,0.6c-0.7-0.1-1.5-0.6-2-1.2l-7.8-10.7c-0.4-0.7-0.7-1.5-0.6-2.3c0.2-0.8,0.6-1.5,1.2-2l3.5-2.6
	c0.7-0.4,1.5-0.7,2.3-0.6l0.1,0.1C103.8,151.2,104.5,151.6,105,152.3L105,152.3z M111.1,164.1l-7.8-10.7c-0.2-0.3-0.4-0.3-0.6-0.4
	l0,0c-0.3,0-0.6,0-0.8,0.2l-3.5,2.6c-0.3,0.2-0.4,0.4-0.4,0.7c-0.1,0.2,0,0.6,0.2,0.8l7.8,10.7c0.2,0.3,0.4,0.4,0.7,0.4
	c0.2,0.1,0.6,0,0.8-0.2l3.5-2.6c0.3-0.2,0.3-0.4,0.4-0.6l0,0C111.4,164.6,111.2,164.4,111.1,164.1z"/>
<rect x="111" y="166.7" transform="matrix(0.8075 -0.5898 0.5898 0.8075 -79.6721 99.5243)" class="st18" width="3.3" height="10.2"/>
<path class="st0" d="M111.9,166.1l6,8.2c0.4,0.5,0.2,1.1-0.2,1.4l-2.7,2c-0.5,0.4-1.1,0.2-1.4-0.2l-6-8.2c-0.4-0.5-0.2-1.1,0.2-1.4
	l2.7-2C110.9,165.6,111.5,165.6,111.9,166.1L111.9,166.1z M115.7,174.7l-4.8-6.6l-1.1,0.7l4.8,6.6L115.7,174.7z"/>
<rect x="94.8" y="144.5" transform="matrix(0.8075 -0.5898 0.5898 0.8075 -69.6662 85.7069)" class="st18" width="3.3" height="10.2"/>
<path class="st0" d="M95.6,143.9l6,8.2c0.4,0.5,0.2,1.1-0.2,1.4l-2.7,2c-0.5,0.4-1.1,0.2-1.4-0.2l-6-8.2c-0.4-0.5-0.2-1.1,0.2-1.4
	l2.7-2C94.7,143.3,95.3,143.5,95.6,143.9L95.6,143.9z M99.4,152.5l-4.8-6.6l-1,0.8l4.8,6.6L99.4,152.5z"/>
<path class="st18" d="M118.9,173.6c1.3,1.7,0.9,4.1-0.9,5.5c-1.7,1.3-4.1,0.9-5.5-0.9c-1.3-1.7-0.9-4.1,0.9-5.5
	C115.2,171.5,117.6,171.9,118.9,173.6z"/>
<path class="st0" d="M119.7,173.1L119.7,173.1c0.7,1.1,1.1,2.4,0.8,3.7c-0.2,1.2-0.8,2.4-1.9,3.2c-0.1,0.1-0.1,0.1-0.1,0.1
	c-1.1,0.7-2.4,1.1-3.6,0.9c-1.2-0.2-2.4-0.8-3.2-1.9l-0.1-0.1c-0.7-1.1-1.1-2.4-0.9-3.6c0.2-1.2,0.9-2.4,1.9-3.2
	c1.1-0.7,2.4-1.1,3.7-0.9l0.1,0.1C117.7,171.3,118.9,172,119.7,173.1L119.7,173.1L119.7,173.1z M118.5,176.4c0.1-0.7,0-1.4-0.5-2.1
	l0,0c-0.5-0.6-1.1-1-1.8-1.1l0,0c-0.7-0.1-1.6,0.1-2.2,0.6c-0.6,0.5-1.1,1.2-1.2,1.9c-0.1,0.7,0.1,1.6,0.5,2.1l0,0
	c0.5,0.6,1.2,1.1,1.9,1.2c0.7,0.1,1.4,0,2.1-0.5l0,0C118.1,177.8,118.4,177.1,118.5,176.4z"/>
<path class="st18" d="M96.6,143.2c1.3,1.7,0.9,4.1-0.9,5.5c-1.7,1.3-4.1,0.9-5.5-0.9c-1.3-1.7-0.9-4.1,0.9-5.5
	C92.9,141.1,95.3,141.4,96.6,143.2z"/>
<path class="st0" d="M97.5,142.6L97.5,142.6c0.7,1.1,1.1,2.4,0.8,3.7c-0.2,1.2-0.8,2.4-1.9,3.2c-0.1,0.1-0.1,0.1-0.1,0.1
	c-1.1,0.7-2.4,1.1-3.6,0.9c-1.2-0.2-2.4-0.8-3.2-1.9l-0.1-0.1c-0.7-1.1-1.1-2.4-0.9-3.6s0.9-2.4,1.9-3.2c1.1-0.7,2.4-1.1,3.7-0.9
	l0.1,0.1C95.5,140.8,96.6,141.4,97.5,142.6L97.5,142.6L97.5,142.6z M96.3,145.9c0.1-0.7,0-1.5-0.5-2.1l0,0c-0.5-0.6-1.1-1-1.8-1.1
	l0,0c-0.7-0.1-1.6,0.1-2.2,0.6s-1.1,1.2-1.2,1.9c-0.1,0.7,0.1,1.6,0.5,2.1l0,0c0.5,0.6,1.2,1.1,1.9,1.2c0.7,0.1,1.5,0,2.1-0.5l0,0
	C95.8,147.3,96.2,146.6,96.3,145.9z"/>
<path class="st0" d="M94.8,144c1,1.3,0.7,3.1-0.6,4.1c-1.3,1-3.1,0.7-4.1-0.6c-1-1.3-0.7-3.1,0.6-4.1
	C92.1,142.4,93.9,142.7,94.8,144z"/>
<path class="st0" d="M116.9,174.2c1,1.3,0.7,3.1-0.6,4.1s-3.1,0.7-4.1-0.6c-1-1.3-0.7-3.1,0.6-4.1C114.2,172.7,116,173,116.9,174.2z
	"/>
</svg>
